<svg xmlns="http://www.w3.org/2000/svg" viewBox="0 0 395 130">
<text x="0" y="95" font-family="Space Grotesk" font-weight="700" font-size="88" fill="#F2FBF9">Reflux</text>
<g fill="#98FFE8" transform="translate(288,15)">
<g transform="translate(50,50) translate(-50,-50)">
<path d="M50,42 C47.2,34 46,26 46,18 A4.3,4.3 0 0 0 54,18 C54,26 52.8,34 50,42 Z" transform="rotate(0 50 50)"/>
<path d="M50,42 C47.2,34 46,26 46,18 A4.3,4.3 0 0 0 54,18 C54,26 52.8,34 50,42 Z" transform="rotate(30 50 50)"/>
<path d="M50,42 C47.2,34 46,26 46,18 A4.3,4.3 0 0 0 54,18 C54,26 52.8,34 50,42 Z" transform="rotate(60 50 50)"/>
<path d="M50,42 C47.2,34 46,26 46,18 A4.3,4.3 0 0 0 54,18 C54,26 52.8,34 50,42 Z" transform="rotate(90 50 50)"/>
<path d="M50,42 C47.2,34 46,26 46,18 A4.3,4.3 0 0 0 54,18 C54,26 52.8,34 50,42 Z" transform="rotate(120 50 50)"/>
<path d="M50,42 C47.2,34 46,26 46,18 A4.3,4.3 0 0 0 54,18 C54,26 52.8,34 50,42 Z" transform="rotate(150 50 50)"/>
<path d="M50,42 C47.2,34 46,26 46,18 A4.3,4.3 0 0 0 54,18 C54,26 52.8,34 50,42 Z" transform="rotate(180 50 50)"/>
<path d="M50,42 C47.2,34 46,26 46,18 A4.3,4.3 0 0 0 54,18 C54,26 52.8,34 50,42 Z" transform="rotate(210 50 50)"/>
<path d="M50,42 C47.2,34 46,26 46,18 A4.3,4.3 0 0 0 54,18 C54,26 52.8,34 50,42 Z" transform="rotate(240 50 50)"/>
<path d="M50,42 C47.2,34 46,26 46,18 A4.3,4.3 0 0 0 54,18 C54,26 52.8,34 50,42 Z" transform="rotate(270 50 50)"/>
<path d="M50,42 C47.2,34 46,26 46,18 A4.3,4.3 0 0 0 54,18 C54,26 52.8,34 50,42 Z" transform="rotate(300 50 50)"/>
<path d="M50,42 C47.2,34 46,26 46,18 A4.3,4.3 0 0 0 54,18 C54,26 52.8,34 50,42 Z" transform="rotate(330 50 50)"/>
</g>
</g>
</svg>